<?xml version="1.0" encoding="UTF-8"?>
<svg width="246px" height="96px" viewBox="0 0 246 96" version="1.1" xmlns="http://www.w3.org/2000/svg" xmlns:xlink="http://www.w3.org/1999/xlink">
    <!-- Generator: Sketch 63.1 (92452) - https://sketch.com -->
    <title>Diego_logo</title>
    <desc>Created with Sketch.</desc>
    <defs>
        <polygon id="path-1" points="0 0.038521519 75.9604861 0.038521519 75.9604861 63.7924456 0 63.7924456"></polygon>
        <polygon id="path-3" points="0.138977215 0.0139746835 46.3797468 0.0139746835 46.3797468 47.5258734 0.138977215 47.5258734"></polygon>
    </defs>
    <g id="Page-1" stroke="none" stroke-width="1" fill="none" fill-rule="evenodd">
        <g id="Desktop-HD" transform="translate(-152.000000, -48.000000)">
            <g id="Diego_logo" transform="translate(152.000000, 48.000000)">
                <g id="Group-3" transform="translate(0.000000, 0.164051)">
                    <mask id="mask-2" fill="white">
                        <use xlink:href="#path-1"></use>
                    </mask>
                    <g id="Clip-2"></g>
                    <path d="M20.8232709,61.4807494 C20.6916253,60.4715342 20.5792203,59.4280911 20.4809924,58.3528506 C20.3835747,57.2774076 20.3343595,56.2845975 20.3343595,55.3707747 C20.2689418,53.2206987 20.2367392,50.4506734 20.2367392,47.0615089 L20.2367392,35.6235342 C20.2367392,27.8679899 20.2689418,21.1884962 20.3343595,15.5822177 C20.3983595,9.97755949 20.5942076,5.57836962 20.9206886,2.38424304 C21.3763848,2.25482532 21.9797266,2.15720506 22.7301063,2.09117975 C23.4780557,2.02697722 24.2936506,1.94454684 25.1740557,1.84692658 C26.0536506,1.74869873 26.949043,1.68469873 27.8620557,1.65128101 C28.7738532,1.61928101 29.6222582,1.60226835 30.4036253,1.60226835 C32.6847392,1.60226835 34.6077772,1.68469873 36.1721316,1.84692658 C37.7356759,2.01057215 39.1691949,2.22282532 40.4730937,2.48247089 C43.8614481,3.06900253 46.9895494,4.37350886 49.8584101,6.39254684 C52.7258532,8.41381266 55.2020051,10.8743696 57.2878785,13.7738127 C59.3733468,16.6748759 61.003119,19.9174076 62.1759797,23.5008 C63.3496506,27.0858127 63.9361823,30.7688506 63.9361823,34.5480911 C63.9361823,43.0864203 62.1917772,50.271838 58.7056,56.1043443 C56.8496,59.2089519 54.4856506,61.7679392 51.6238785,63.7924456 L61.8721823,63.7924456 C62.0374481,63.6871291 62.2075747,63.5931544 62.3718278,63.4850025 C65.0434228,61.7256101 67.3899544,59.5105215 69.4106127,56.8375089 C71.4298532,54.1657114 73.0274228,50.9715848 74.2010937,47.2571544 C75.3739544,43.5419139 75.9604861,39.2403443 75.9604861,34.3524456 C75.9604861,30.1169013 75.4231696,26.3526481 74.3477266,23.0611038 C73.2722835,19.7707747 71.8375494,16.8697114 70.046157,14.3603443 C68.2527392,11.8521924 66.1510684,9.68429367 63.7403342,7.85887595 C61.3283848,6.03528101 58.7548152,4.53512911 56.0173975,3.36226835 C53.9309165,2.45047089 51.8134481,1.76591392 49.6627646,1.3088 C47.5118785,0.854116456 45.3609924,0.526825316 43.2109165,0.331787342 C41.0600304,0.135939241 38.9093468,0.038521519 36.7586633,0.038521519 L30.5018532,0.038521519 C23.2018025,0.038521519 16.9771949,0.0547240506 11.8294481,0.0869265823 C6.68008101,0.120951899 2.73800506,0.135939241 -2.02531646e-05,0.135939241 L-2.02531646e-05,1.11376203 C1.69456203,1.3088 3.22610633,1.63629367 4.59481519,2.09117975 C5.96332152,2.54809114 7.13699241,3.36226835 8.11420759,4.53512911 C8.50570127,4.99204051 8.79876456,5.62758481 8.99461266,6.44176203 C9.18965063,7.25735696 9.33628354,8.16915443 9.43451139,9.17897722 C9.53192911,10.1902177 9.5811443,11.2806481 9.5811443,12.4537114 L9.5811443,15.9731038 L9.5811443,35.0370025 L9.5811443,40.7064709 C9.5811443,42.662319 9.56392911,44.5683443 9.53192911,46.4259646 C9.49851139,48.2833823 9.46651139,49.9943696 9.43451139,51.5581165 C9.40028354,53.1222684 9.3852962,54.3615595 9.3852962,55.273357 C9.3852962,56.3165975 9.35187848,57.3920405 9.28787848,58.499281 C9.22165063,59.6081418 9.12423291,60.6501671 8.99461266,61.6273823 C8.88808101,62.4190785 8.76878987,63.1291544 8.64220759,63.7924456 L21.3340557,63.7924456 C21.1114734,63.0854076 20.9322329,62.3257114 20.8232709,61.4807494" id="Fill-1" fill="#2B2B2B" mask="url(#mask-2)"></path>
                </g>
                <path d="M95.4137722,23.4691848 L94.8272405,23.4691848 L81.6292658,27.7707544 L81.6292658,28.3572861 C82.5416709,28.6845772 83.4044557,29.041843 84.2198481,29.4327291 C85.0342278,29.8240203 85.7351899,30.2149063 86.3223291,30.6061975 C86.7772152,30.932881 87.0554937,31.2901468 87.1529114,31.6816405 C87.2511392,32.0725266 87.2995443,32.5292354 87.2995443,33.0503494 L87.2995443,63.9564759 L95.4137722,63.9564759 L95.4137722,23.4691848 Z" id="Fill-4" fill="#2B2B2B"></path>
                <path d="M90.9172253,13.3023392 C92.4153519,13.3023392 93.6694278,12.7984405 94.6808709,11.7872 C95.6906937,10.7771747 96.1960101,9.52309873 96.1960101,8.02294684 C96.1960101,6.52461772 95.6906937,5.28552911 94.6808709,4.30851646 C93.6694278,3.33049114 92.4153519,2.84157975 90.9172253,2.84157975 C89.4168709,2.84157975 88.1627949,3.33049114 87.1529722,4.30851646 C86.1415291,5.28552911 85.6378329,6.52461772 85.6378329,8.02294684 C85.6378329,9.45768101 86.1587443,10.6959595 87.2019848,11.7379848 C88.2440101,12.7814278 89.4824911,13.3023392 90.9172253,13.3023392" id="Fill-6" fill="#2B2B2B"></path>
                <path d="M115.160992,34.8587139 C115.748132,33.3919797 116.578714,31.9428658 117.654157,30.5081316 C118.7296,29.0752203 120.000689,27.8199291 121.466815,26.7444861 C122.932942,25.669043 124.578511,25.131119 126.403929,25.131119 C129.205347,25.131119 131.438663,25.9957266 133.100435,27.7223089 C134.762208,29.4497013 135.5936,31.5193722 135.5936,33.9299038 C135.5936,34.843119 135.478967,35.5276759 135.251119,35.982562 C135.022056,36.4394734 134.679777,36.9283848 134.225094,37.4494987 C133.572334,37.710562 132.822157,37.8742076 131.97598,37.9384101 C131.128385,38.0038278 130.216587,38.0358278 129.238765,38.0358278 C127.73922,38.0358278 126.369904,38.0528405 125.132841,38.085043 C123.893752,38.1182582 122.703878,38.1504608 121.564435,38.1824608 C120.423372,38.2158785 119.266916,38.2314734 118.094056,38.2314734 L114.085549,38.2314734 C114.215777,37.4494987 114.574461,36.3248405 115.160992,34.8587139 M123.95998,62.5735494 C121.677448,61.4663089 119.787828,59.9509671 118.289701,58.0279291 C116.789549,56.1063089 115.650106,53.8898025 114.867727,51.3804354 C114.085549,48.8722835 113.694866,46.2474734 113.694866,43.5102582 C113.694866,42.7943089 113.726866,42.0925367 113.792486,41.4085873 C113.856486,40.7240304 113.890714,40.1225114 113.890714,39.6001823 L145.271575,39.6001823 C145.076537,36.8629671 144.45598,34.4844354 143.413954,32.4631696 C142.370714,30.4439291 141.019018,28.7651443 139.357246,27.4284354 C137.695271,26.0939544 135.740233,25.099119 133.491322,24.4471696 C131.242815,23.7964354 128.847878,23.4691443 126.305701,23.4691443 C123.177803,23.4691443 120.325954,24.1381063 117.751777,25.4733975 C115.17679,26.8099038 112.993904,28.5528911 111.201701,30.7037772 C109.409094,32.8544608 108.02479,35.2836253 107.046765,37.9868152 C106.069549,40.6920304 105.580638,43.4128405 105.580638,46.1500557 C105.580638,49.5392203 106.101752,52.7489418 107.144992,55.7794228 C108.187018,58.8099038 109.670157,61.4497013 111.593195,63.6980051 C111.668942,63.7869165 111.749549,63.8695494 111.826511,63.9564354 L128.403524,63.9564354 C126.796841,63.6894987 125.313499,63.2321823 123.95998,62.5735494" id="Fill-8" fill="#2B2B2B"></path>
                <path d="M144.294299,60.6675646 C145.206096,58.875362 145.792425,57.2626025 146.053691,55.8286785 L145.271514,55.6330329 C144.489337,58.0449823 142.876577,60.0810329 140.432628,61.7432101 C138.792932,62.8579443 136.965084,63.5896911 134.958603,63.9564759 L142.098451,63.9564759 C142.961641,62.9197165 143.702906,61.8282734 144.294299,60.6675646" id="Fill-10" fill="#2B2B2B"></path>
                <g id="Group-14" transform="translate(199.291139, 23.455190)">
                    <mask id="mask-4" fill="white">
                        <use xlink:href="#path-3"></use>
                    </mask>
                    <g id="Clip-13"></g>
                    <path d="M36.5551797,30.6134684 C36.0662684,33.286481 35.2842937,35.7796456 34.2086481,38.0921519 C33.1332051,40.4066835 31.731281,42.3297215 30.0053063,43.8598481 C28.2773063,45.3922025 26.1436354,46.1571646 23.6012557,46.1571646 C21.0596861,46.1571646 18.8755848,45.5556456 17.0513823,44.3487595 C15.2265722,43.1436962 13.7276354,41.5139241 12.5547747,39.4608608 C11.3811038,37.4082025 10.5337114,35.0466835 10.0125975,32.3734684 C9.49026835,29.7016709 9.23123038,26.8662278 9.23123038,23.8677468 C9.23123038,21.1305316 9.53928101,18.4423291 10.1592304,15.8027342 C10.7785722,13.1629367 11.6901671,10.7850127 12.8970532,8.66632911 C14.1021165,6.54886076 15.551838,4.83787342 17.2472304,3.53336709 C18.9410025,2.23088608 20.8640405,1.57832911 23.0149266,1.57832911 C25.6867241,1.57832911 27.9348253,2.27949367 29.7604456,3.68 C31.5846481,5.08273418 33.0507747,6.85792405 34.1596354,9.008 C35.2670785,11.1586835 36.0662684,13.5052152 36.5551797,16.0467848 C37.0434835,18.588962 37.2883443,20.9689114 37.2883443,23.1837975 C37.2883443,25.465519 37.0434835,27.9416709 36.5551797,30.6134684 M44.2781165,13.0653165 C42.8759899,10.1658734 41.0837873,7.75392405 38.9011038,5.83088608 C36.7168,3.90906329 34.2898633,2.45792405 31.6180658,1.48091139 C28.9450532,0.502886076 26.3052557,0.0139746835 23.6994835,0.0139746835 C20.1800911,0.0139746835 16.9689519,0.666531646 14.0699139,1.96982278 C11.1690532,3.27432911 8.6931038,5.0003038 6.64044557,7.15098734 C4.58717975,9.30187342 2.98961013,11.7792405 1.84996456,14.5806582 C0.709103797,17.3832911 0.138977215,20.2843544 0.138977215,23.2814177 C0.138977215,27.4527595 0.871939241,31.0867848 2.33887595,34.1818734 C3.80500253,37.2777722 5.69462278,39.8201519 8.00915443,41.8073924 C10.3216608,43.7958481 12.8480405,45.2455696 15.5852557,46.1571646 C18.3226734,47.0709873 20.9622684,47.5258734 23.503838,47.5258734 C26.5665215,47.5258734 29.4821671,46.9073418 32.2536101,45.6682532 C35.0230278,44.4313924 37.4499646,42.704 39.5366481,40.4870886 C41.6221165,38.272 43.2838886,35.6814177 44.5229772,32.7151392 C45.759838,29.7500759 46.3797873,26.604962 46.3797873,23.2814177 C46.3797873,19.3711392 45.6788253,15.9663797 44.2781165,13.0653165" id="Fill-12" fill="#2B2B2B" mask="url(#mask-4)"></path>
                </g>
                <path d="M36.3656101,89.2787038 C35.8787241,90.098957 35.238319,90.9050329 34.4454076,91.6987544 C33.6508759,92.4924759 32.7295595,93.2092354 31.6800405,93.849438 C30.6299139,94.489843 29.4521924,95.001438 28.1462684,95.3852354 C26.8403443,95.769843 25.4444962,95.961438 23.9599392,95.961438 C21.9115342,95.961438 19.9980152,95.5966785 18.2181671,94.8671595 C16.438319,94.1372354 14.8774076,93.1193114 13.5325975,91.8141975 C12.1885975,90.5080709 11.1321924,88.9528304 10.3643949,87.1476658 C9.59659747,85.3425013 9.21198987,83.3779443 9.21198987,81.2523747 C9.21198987,79.1274127 9.59659747,77.1622481 10.3643949,75.3564759 C11.1321924,73.5515139 12.1885975,71.9958684 13.5325975,70.6907544 C14.8774076,69.3846278 16.438319,68.3667038 18.2181671,67.6371848 C19.9980152,66.9072608 21.9115342,66.5425013 23.9599392,66.5425013 C25.4704203,66.5425013 26.8725468,66.7478684 28.1655089,67.1567797 C29.4584709,67.5667038 30.6299139,68.0979443 31.6800405,68.7507038 C32.7295595,69.4038684 33.6508759,70.1404759 34.4454076,70.9593114 C35.238319,71.7791595 35.8908759,72.5856405 36.4036861,73.3787544 L35.0596861,73.3787544 C34.777357,72.9921215 34.342319,72.4766785 33.753762,71.8322228 C33.1645975,71.1877671 32.4028759,70.5501975 31.4685975,69.9187038 C30.5337114,69.2872101 29.4392304,68.7336911 28.1845468,68.2561215 C26.9298633,67.7803747 25.5216608,67.5407797 23.9599392,67.5407797 C22.0648506,67.5407797 20.2924962,67.887919 18.6408506,68.5807797 C16.9894076,69.2748557 15.5490025,70.2310076 14.320243,71.4510582 C13.091281,72.6702987 12.1243949,74.1145519 11.4205975,75.7832101 C10.7161924,77.4518684 10.3643949,79.2754633 10.3643949,81.2523747 C10.3643949,83.2292861 10.7161924,85.0526785 11.4205975,86.7213367 C12.1243949,88.3899949 13.091281,89.8344506 14.320243,91.0545013 C15.5490025,92.2735392 16.9894076,93.2296911 18.6408506,93.923362 C20.2924962,94.6166278 22.0648506,94.9631595 23.9599392,94.9631595 C25.6239392,94.9631595 27.0961418,94.7182987 28.3767494,94.2285772 C29.6567494,93.7390582 30.7581165,93.177843 31.6800405,92.5465519 C32.601357,91.9150582 33.3440405,91.283362 33.907281,90.6520709 C34.4705215,90.0205772 34.8545215,89.5628557 35.0596861,89.2787038 L36.3656101,89.2787038 Z" id="Fill-15" fill="#2B2B2B"></path>
                <path d="M45.1604051,84.5550177 L59.0253165,84.5550177 L52.0738228,68.1552203 L45.1604051,84.5550177 Z M40.398481,95.462157 L39.1689114,95.462157 L51.3441013,67.0417013 L52.8416203,67.0417013 L65.0168101,95.462157 L63.7878481,95.462157 L59.524557,85.5532962 L44.6611646,85.5532962 L40.398481,95.462157 Z" id="Fill-17" fill="#2B2B2B"></path>
                <path d="M76.9606481,67.041762 C78.0614076,67.041762 79.0084456,67.0676861 79.8021671,67.1187241 C80.5960911,67.1705722 81.2875342,67.2400405 81.8766987,67.3301671 C82.4652557,67.4200911 82.9644962,67.5408 83.3742177,67.6951291 C83.7833316,67.848243 84.1679392,68.0276861 84.5266228,68.2324456 C85.0892557,68.5145722 85.6273823,68.9109266 86.1393823,69.4229266 C86.6515848,69.9357367 87.0866228,70.5311797 87.4453063,71.2088506 C87.8033823,71.8875342 88.0917873,72.6170532 88.3093063,73.3980152 C88.5268253,74.1793823 88.6359899,74.9791797 88.6359899,75.7982177 C88.6611038,76.6950278 88.5337114,77.6552304 88.2519899,78.6788253 C87.9696608,79.7030278 87.4965468,80.6632304 86.8308253,81.5592304 C86.1646987,82.455838 85.2883443,83.2048 84.1999392,83.8061165 C83.1117367,84.408243 81.7997367,84.7083949 80.2633316,84.7083949 L79.1496101,84.747281 L86.7927494,95.4622177 L85.3333063,95.4622177 L76.9987241,83.7101165 L78.7658127,83.7101165 C79.4313316,83.7101165 80.0456101,83.6908759 80.6090532,83.6528 C81.1722937,83.6139139 81.7033316,83.5306734 82.2025722,83.4024709 C82.7026228,83.2736608 83.1880911,83.0881418 83.6626228,82.8438886 C84.1359392,82.6004456 84.6029772,82.286319 85.0639392,81.9009013 C85.9601418,80.9516354 86.5873823,79.9827241 86.9460658,78.9939646 C87.3041418,78.0064203 87.4835848,76.9465722 87.4835848,75.8174582 C87.4835848,74.5858633 87.1957873,73.3536608 86.6193823,72.1212557 C86.0431797,70.8898633 85.2044962,69.9146734 84.1039392,69.1958886 C83.6680911,68.9135595 83.2077367,68.6954329 82.7216608,68.5404962 C82.2347747,68.3871797 81.7033316,68.2711291 81.1273316,68.1947747 C80.5517367,68.1176101 79.9236861,68.0728506 79.2458127,68.0596861 C78.5673316,68.0469266 77.8056101,68.0408506 76.9606481,68.0408506 L71.6219139,68.0408506 L71.6219139,95.4622177 L70.4701165,95.4622177 L70.4701165,67.041762 L76.9606481,67.041762 Z" id="Fill-19" fill="#2B2B2B"></path>
                <path d="M95.8943797,94.4640405 L101.885873,94.4640405 C102.627747,94.4640405 103.345114,94.4128 104.036557,94.3099139 C104.728,94.2074329 105.367595,94.0535089 105.956962,93.8475342 C107.032203,93.3851544 107.921519,92.6793316 108.625924,91.7294582 C109.329722,90.7789772 109.694481,89.5084962 109.720405,87.9161924 C109.720405,86.4786228 109.374684,85.2267747 108.683848,84.1608506 C107.992405,83.0949266 107.057519,82.3052557 105.879797,81.791838 C105.495797,81.6377114 105.137114,81.5095089 104.804354,81.4070278 C104.471595,81.3041418 104.118987,81.2332557 103.748152,81.1949772 C103.377114,81.1569013 102.973468,81.1309772 102.53843,81.1174076 C102.102582,81.1050532 101.603342,81.0983696 101.040911,81.0983696 L95.8943797,81.0983696 L95.8943797,94.4640405 Z M95.8943797,80.0998886 L101.040911,80.0998886 C101.885873,80.0998886 102.640709,80.0486481 103.306835,79.945762 C103.972557,79.8422684 104.561114,79.6492557 105.073114,79.3655089 C106.250835,78.6959392 107.025316,77.8910785 107.396962,76.9499139 C107.768,76.009762 107.953519,75.0365975 107.953519,74.0314329 C107.953519,72.7174076 107.658835,71.6160405 107.070481,70.7269266 C106.481316,69.8376101 105.815797,69.2259646 105.073114,68.8903696 C104.66319,68.659281 104.151797,68.4656608 103.537316,68.3107241 C102.923038,68.1559899 102.000911,68.0658633 100.772152,68.0407494 L95.8943797,68.0407494 L95.8943797,80.0998886 Z M100.772152,67.0418633 C102.000911,67.0418633 102.999392,67.1317873 103.767797,67.3112304 C104.535797,67.4910785 105.201316,67.7474835 105.764557,68.080243 C106.404152,68.4403443 106.942278,68.8569519 107.377924,69.3308759 C107.813165,69.8056101 108.158886,70.3190278 108.414481,70.8707241 C108.670278,71.4218127 108.849519,71.9801924 108.952608,72.544243 C109.054278,73.1080911 109.105924,73.6597873 109.105924,74.1979139 C109.105924,74.4030785 109.086886,74.7562937 109.04881,75.2569519 C109.009924,75.7568 108.868759,76.3145722 108.625924,76.9302684 C108.382481,77.5461671 107.992405,78.1673316 107.454481,78.7961924 C106.916962,79.4248506 106.161519,79.9573063 105.188354,80.3923443 L105.188354,80.4695089 C106.494278,80.8526987 107.524557,81.3900152 108.280203,82.0800405 C109.035038,82.7704709 109.605165,83.4931038 109.989165,84.2467241 C110.373772,85.0007494 110.616405,85.7171038 110.719494,86.393357 C110.821165,87.0712304 110.873013,87.5757367 110.873013,87.9086987 C110.847089,89.6727494 110.437165,91.1172051 109.644051,92.2414582 C108.849519,93.3661165 107.761924,94.2226228 106.379038,94.8103696 C105.124152,95.2448 103.613671,95.462319 101.847595,95.462319 L94.7419747,95.462319 L94.7419747,67.0418633 L100.772152,67.0418633 Z" id="Fill-21" fill="#2B2B2B"></path>
                <path d="M121.011767,84.5550177 L134.876678,84.5550177 L127.925185,68.1552203 L121.011767,84.5550177 Z M116.249235,95.462157 L115.020273,95.462157 L127.195463,67.0417013 L128.692982,67.0417013 L140.868172,95.462157 L139.637792,95.462157 L135.375716,85.5532962 L120.512527,85.5532962 L116.249235,95.462157 Z" id="Fill-23" fill="#2B2B2B"></path>
                <polygon id="Fill-25" fill="#2B2B2B" points="151.315261 84.363362 160.071716 67.041843 161.377033 67.041843 151.890856 85.6684759 151.890856 95.4622987 150.738856 95.4622987 150.738856 85.6684759 141.252678 67.041843 142.519716 67.041843"></polygon>
                <path d="M159.446805,38.5247595 C159.446805,36.8307848 159.674451,35.1690127 160.130754,33.5384304 C160.586248,31.9106835 161.25521,30.4595443 162.134805,29.1884557 C163.014603,27.9173671 164.105641,26.9081519 165.410147,26.1579747 C166.713438,25.4092152 168.179362,25.033519 169.809337,25.033519 C171.568729,25.033519 173.116678,25.3757975 174.453185,26.0597468 C175.787868,26.7443038 176.897134,27.657519 177.776932,28.796962 C178.656729,29.9386329 179.324273,31.2581266 179.780982,32.7568608 C180.235868,34.2566076 180.464932,35.852962 180.464932,37.5467342 C180.464932,39.3723544 180.235868,41.1153418 179.780982,42.7773165 C179.324273,44.4390886 178.639716,45.9222278 177.727919,47.2253165 C176.814704,48.5298228 175.690248,49.5712405 174.354957,50.3534177 C173.018451,51.1355949 171.471109,51.5268861 169.711919,51.5268861 C166.843058,51.5268861 164.415919,50.3384304 162.428273,47.958481 C160.439615,45.5799494 159.446805,42.4348354 159.446805,38.5247595 M182.2784,63.9564557 C183.49359,64.0046582 186.481539,64.4621772 187.735818,64.9881519 C189.597489,65.7703291 191.221185,66.8486076 192.606096,68.2233924 C193.991615,69.5981772 195.088122,71.2265316 195.896425,73.1072405 C196.704527,74.9887595 197.10878,77.0438481 197.10878,79.2716962 C197.10878,81.500962 196.704527,83.5564557 195.896425,85.4379747 C195.088122,87.3186835 193.991615,88.947038 192.606096,90.3218228 C191.221185,91.6966076 189.597489,92.7746835 187.735818,93.5562532 C185.874147,94.3376203 183.889134,94.7285063 181.782603,94.7285063 C179.646704,94.7285063 177.647919,94.3376203 175.786451,93.5562532 C173.924577,92.7746835 172.301894,91.6966076 170.916172,90.3218228 C169.530451,88.947038 168.440628,87.3186835 167.647514,85.4379747 C166.853185,83.5564557 166.45683,81.500962 166.45683,79.2716962 C166.45683,77.0438481 166.853185,74.9887595 167.647514,73.1072405 C168.440628,71.2265316 169.530451,69.5981772 170.916172,68.2233924 C171.322248,67.8203544 171.755058,67.4507342 172.202046,67.0987342 L170.331261,67.0987342 C170.232223,67.190481 170.125286,67.2716962 170.028071,67.3660759 C168.513134,68.838481 167.322451,70.5915949 166.45683,72.6264304 C165.591008,74.6614684 165.157792,76.876962 165.157792,79.2716962 C165.157792,81.6682532 165.591008,83.8831392 166.45683,85.9179747 C167.322451,87.9528101 168.513134,89.7061266 170.028071,91.1783291 C171.543615,92.6499241 173.304223,93.7976709 175.310299,94.6201519 C177.31597,95.4424304 179.473539,95.8537722 181.782603,95.8537722 C184.062299,95.8537722 186.212982,95.4424304 188.233641,94.6201519 C190.253286,93.7976709 192.021792,92.6499241 193.536932,91.1783291 C195.052273,89.7061266 196.242957,87.9528101 197.10878,85.9179747 C197.974805,83.8831392 198.407818,81.6682532 198.407818,79.2716962 C198.407818,76.876962 197.974805,74.6614684 197.10878,72.6264304 C196.242957,70.5915949 195.052273,68.838481 193.536932,67.3660759 C192.021792,65.8946835 190.253286,64.7469367 188.233641,63.9244557 C187.404678,63.587038 185.518906,62.992 183.49359,62.7894684 C181.937539,62.6337215 178.689539,62.4761519 176.910299,62.4761519 L165.116881,62.4761519 C164.007615,62.4761519 162.86797,62.4119494 161.695109,62.2803038 C160.522248,62.1506835 159.446805,61.8894177 158.46878,61.4981266 C157.491767,61.107443 156.675362,60.569519 156.02483,59.8853671 C155.372881,59.2008101 155.047615,58.3380253 155.047615,57.2947848 C155.047615,55.9914937 155.666147,54.9162532 156.904425,54.0684557 C158.142299,53.2222785 159.804071,52.7333671 161.890754,52.6025316 C163.193843,52.6025316 164.317691,52.6679494 165.263716,52.7975696 C166.207311,52.9290127 167.136122,52.9932152 168.049944,52.9932152 C174.370754,52.9932152 179.324273,51.7071392 182.909084,49.1313418 C186.492678,46.5577722 188.286096,42.6961013 188.286096,37.5467342 C188.286096,35.4620759 187.943818,33.7676962 187.259868,32.4629873 C186.575109,31.1607089 185.744527,29.76 184.766704,28.2596456 L185.157995,27.868962 C185.939565,28.3252658 186.81997,28.8311899 187.796982,29.3841013 C188.775008,29.9386329 189.735818,30.4439494 190.681033,30.899443 C191.625438,31.3557468 192.490046,31.747038 193.271818,32.0723038 C194.053792,32.3989873 194.640324,32.5612152 195.031615,32.5612152 C196.00883,32.5612152 196.840223,32.1869367 197.524982,31.4367595 C198.208932,30.6888101 198.551008,29.824 198.551008,28.8461772 C198.551008,27.7387342 198.191919,26.793519 197.475767,26.0113418 C196.757792,25.2291646 195.845995,24.8376709 194.738552,24.8376709 C193.956375,24.8376709 193.271818,24.9523038 192.685084,25.1801519 C192.098754,25.4092152 191.544223,25.6690633 191.023311,25.9623291 C190.500982,26.2553924 189.931666,26.5166582 189.312324,26.7443038 C188.692375,26.9735696 187.99283,27.0867848 187.210653,27.0867848 C186.428678,27.0867848 185.759514,27.0547848 185.2064,26.988557 C184.652071,26.924557 183.984527,26.761519 183.202349,26.5002532 C181.115666,25.3928101 179.112223,24.6106329 177.1904,24.1537215 C175.267362,23.6982278 173.067666,23.4691646 170.591311,23.4691646 C167.854299,23.4691646 165.327716,23.8606582 163.014603,24.6428354 C160.700678,25.4248101 158.696628,26.4846582 157.002856,27.8199494 C155.306856,29.1564557 153.987159,30.7370127 153.043565,32.5612152 C152.097742,34.3868354 151.625843,36.3418734 151.625843,38.4265316 C151.625843,41.7508861 152.422805,44.4881013 154.020577,46.6389873 C155.617134,48.7898734 157.84883,50.419443 160.717691,51.5268861 L160.717691,51.8201519 C159.087514,52.0151899 157.572172,52.4236962 156.171463,53.0422278 C154.769337,53.6619747 153.547463,54.4273418 152.505438,55.3395443 C151.461995,56.2527595 150.647818,57.2627848 150.061286,58.3700253 C149.474957,59.4788861 149.181691,60.6519494 149.181691,61.8894177 C149.181691,62.6231899 149.269995,63.308557 149.427159,63.9564557 C149.427159,63.9564557 180.965792,63.9046076 182.2784,63.9564557" id="Fill-27" fill="#2B2B2B"></path>
            </g>
        </g>
    </g>
</svg>