<?xml version="1.0" encoding="UTF-8"?>
<svg width="410px" height="160px" viewBox="0 0 410 160" version="1.1" xmlns="http://www.w3.org/2000/svg" xmlns:xlink="http://www.w3.org/1999/xlink">
    <!-- Generator: Sketch 63.1 (92452) - https://sketch.com -->
    <title>Diego_logo</title>
    <desc>Created with Sketch.</desc>
    <defs>
        <polygon id="path-1" points="0 0.0642025316 126.60081 0.0642025316 126.60081 106.320743 0 106.320743"></polygon>
        <polygon id="path-3" points="0.231628692 0.0232911392 77.2995781 0.0232911392 77.2995781 79.209789 0.231628692 79.209789"></polygon>
    </defs>
    <g id="Page-1" stroke="none" stroke-width="1" fill="none" fill-rule="evenodd">
        <g id="Desktop-HD" transform="translate(-160.000000, -80.000000)">
            <g id="Diego_logo" transform="translate(160.000000, 80.000000)">
                <g id="Group-3" transform="translate(0.000000, 0.273418)">
                    <mask id="mask-2" fill="white">
                        <use xlink:href="#path-1"></use>
                    </mask>
                    <g id="Clip-2"></g>
                    <path d="M34.7054515,102.467916 C34.4860422,100.78589 34.2987004,99.0468186 34.1349873,97.2547511 C33.9726245,95.462346 33.8905992,93.8076624 33.8905992,92.2846245 C33.7815696,88.7011646 33.7278987,84.0844557 33.7278987,78.4358481 L33.7278987,59.372557 C33.7278987,46.4466498 33.7815696,35.3141603 33.8905992,25.9703629 C33.9972658,16.6292658 34.3236793,9.2972827 34.8678143,3.9737384 C35.627308,3.75804219 36.6328776,3.59534177 37.8835105,3.48529958 C39.1300928,3.37829536 40.4894177,3.24091139 41.9567595,3.07821097 C43.4227511,2.91449789 44.9150717,2.80783122 46.4367595,2.75213502 C47.9564219,2.69880169 49.3704304,2.67044726 50.6727089,2.67044726 C54.4745654,2.67044726 57.6796287,2.80783122 60.2868861,3.07821097 C62.8927932,3.35095359 65.2819916,3.70470886 67.4551561,4.13745148 C73.1024135,5.11500422 78.3159156,7.28918143 83.0973502,10.6542447 C87.8764219,14.0230211 92.0033418,18.1239494 95.4797975,22.9563544 C98.9555781,27.7914599 101.671865,33.1956793 103.626633,39.168 C105.582751,45.1430211 106.560304,51.2814177 106.560304,57.5801519 C106.560304,71.8107004 103.652962,83.7863966 97.8426667,93.5072405 C94.7493333,98.6815865 90.8094177,102.946565 86.0397975,106.320743 L103.120304,106.320743 C103.395747,106.145215 103.679291,105.988591 103.953046,105.808338 C108.405705,102.876017 112.316591,99.1842025 115.684354,94.7291814 C119.049755,90.2761857 121.712371,84.9526414 123.668489,78.7619241 C125.623257,72.5698565 126.60081,65.4005738 126.60081,57.2540759 C126.60081,50.1948354 125.705283,43.9210802 123.912878,38.435173 C122.120473,32.9512911 119.729249,28.1161857 116.743595,23.9339072 C113.754565,19.753654 110.251781,16.1404895 106.23389,13.0981266 C102.213975,10.0588017 97.924692,7.55854852 93.3623291,5.60378059 C89.8848608,4.08411814 86.3557468,2.94318987 82.7712743,2.18133333 C79.1864641,1.42352743 75.601654,0.878042194 72.0181941,0.552978903 C68.433384,0.226565401 64.8489114,0.0642025316 61.2644388,0.0642025316 L50.8364219,0.0642025316 C38.6696709,0.0642025316 28.2953249,0.0912067511 19.7157468,0.144877637 C11.1334684,0.201586498 4.56334177,0.226565401 -3.37552743e-05,0.226565401 L-3.37552743e-05,1.85627004 C2.82427004,2.18133333 5.37684388,2.72715612 7.65802532,3.48529958 C9.9388692,4.24681857 11.8949873,5.60378059 13.5236793,7.55854852 C14.1761688,8.32006751 14.6646076,9.37930802 14.9910211,10.73627 C15.3160844,12.0955949 15.5604726,13.6152574 15.7241857,15.2982954 C15.8865485,16.9836962 15.9685738,18.8010802 15.9685738,20.7561857 L15.9685738,26.6218397 L15.9685738,58.3950042 L15.9685738,67.8441181 C15.9685738,71.103865 15.9398819,74.2805738 15.8865485,77.3766076 C15.8308523,80.4723038 15.777519,83.3239494 15.7241857,85.9301941 C15.6671392,88.5371139 15.6421603,90.6025992 15.6421603,92.1222616 C15.6421603,93.8609958 15.5864641,95.6534008 15.4797975,97.4988017 C15.3694177,99.346903 15.2070549,101.083612 14.9910211,102.712304 C14.8134684,104.031797 14.6146498,105.215257 14.4036793,106.320743 L35.5567595,106.320743 C35.185789,105.142346 34.8870549,103.876186 34.7054515,102.467916" id="Fill-1" fill="#FFFFFF" mask="url(#mask-2)"></path>
                </g>
                <path d="M159.022954,39.115308 L158.045401,39.115308 L136.048776,46.2845907 L136.048776,47.2621435 C137.569451,47.8076287 139.007426,48.4030717 140.366414,49.0545485 C141.723713,49.7067004 142.891983,50.3581772 143.870549,51.0103291 C144.628692,51.5548017 145.092489,52.1502447 145.254852,52.8027342 C145.418565,53.454211 145.499241,54.2153924 145.499241,55.0839156 L145.499241,106.594127 L159.022954,106.594127 L159.022954,39.115308 Z" id="Fill-4" fill="#FFFFFF"></path>
                <path d="M151.528709,22.1705654 C154.025586,22.1705654 156.115713,21.3307342 157.801451,19.6453333 C159.484489,17.9619578 160.326684,15.8718312 160.326684,13.3715781 C160.326684,10.8743629 159.484489,8.80921519 157.801451,7.18086076 C156.115713,5.55081857 154.025586,4.73596624 151.528709,4.73596624 C149.028118,4.73596624 146.937992,5.55081857 145.254954,7.18086076 C143.569215,8.80921519 142.729722,10.8743629 142.729722,13.3715781 C142.729722,15.7628017 143.597907,17.8265992 145.336641,19.563308 C147.07335,21.3023797 149.137485,22.1705654 151.528709,22.1705654" id="Fill-6" fill="#FFFFFF"></path>
                <path d="M191.934987,58.0978565 C192.913553,55.6532996 194.297857,53.2381097 196.090262,50.8468861 C197.882667,48.4587004 200.001148,46.3665485 202.444692,44.5741435 C204.888236,42.7817384 207.630852,41.8851983 210.673215,41.8851983 C215.342245,41.8851983 219.064439,43.326211 221.834059,46.2038481 C224.603679,49.0828354 225.989333,52.5322869 225.989333,56.5498397 C225.989333,58.071865 225.798278,59.2127932 225.418532,59.9709367 C225.036759,60.7324557 224.466295,61.547308 223.708489,62.4158312 C222.620557,62.8509367 221.370262,63.1236793 219.959966,63.2306835 C218.547308,63.3397131 217.027646,63.3930464 215.397941,63.3930464 C212.8987,63.3930464 210.616506,63.4214008 208.554734,63.4750717 C206.489586,63.5304304 204.506464,63.5841013 202.607392,63.6374346 C200.70562,63.6931308 198.778194,63.7191224 196.823426,63.7191224 L190.142582,63.7191224 C190.359629,62.4158312 190.957435,60.5414008 191.934987,58.0978565 M206.599966,104.289249 C202.795747,102.443848 199.64638,99.9182785 197.149502,96.7132152 C194.649249,93.5105148 192.750177,89.8163376 191.446211,85.6340591 C190.142582,81.4538059 189.491443,77.0791224 189.491443,72.517097 C189.491443,71.3238481 189.544776,70.1542278 189.654143,69.0143122 C189.76081,67.873384 189.817857,66.8708523 189.817857,66.0003038 L242.119291,66.0003038 C241.794228,61.4382785 240.759966,57.4740591 239.023257,54.1052827 C237.284523,50.7398819 235.031696,47.9419072 232.262076,45.7140591 C229.492118,43.4899241 226.233722,41.831865 222.485536,40.7452827 C218.738025,39.6607257 214.746464,39.1152405 210.509502,39.1152405 C205.296338,39.1152405 200.543257,40.2301772 196.252962,42.4556624 C191.961316,44.683173 188.323173,47.5881519 185.336169,51.172962 C182.348489,54.7574346 180.041316,58.8060422 178.411274,63.3113586 C176.782582,67.8200506 175.96773,72.3547342 175.96773,76.9167595 C175.96773,82.5653671 176.836253,87.914903 178.574987,92.9657046 C180.311696,98.0165063 182.783595,102.416169 185.988658,106.163342 C186.114903,106.311527 186.249249,106.449249 186.377519,106.594059 L214.005873,106.594059 C211.328068,106.149165 208.855831,105.38697 206.599966,104.289249" id="Fill-8" fill="#FFFFFF"></path>
                <path d="M240.490498,101.112608 C242.01016,98.1256034 242.987376,95.4376709 243.422819,93.0477975 L242.11919,92.7217215 C240.815561,96.7416371 238.127629,100.135055 234.05438,102.90535 C231.321553,104.763241 228.275139,105.982819 224.931004,106.594127 L236.830751,106.594127 C238.269401,104.866194 239.504844,103.047122 240.490498,101.112608" id="Fill-10" fill="#FFFFFF"></path>
                <g id="Group-14" transform="translate(332.151899, 39.091983)">
                    <mask id="mask-4" fill="white">
                        <use xlink:href="#path-3"></use>
                    </mask>
                    <g id="Clip-13"></g>
                    <path d="M60.9252996,51.0224473 C60.1104473,55.4774684 58.8071561,59.6327426 57.0144135,63.4869198 C55.2220084,67.3444726 52.8854684,70.5495359 50.0088439,73.0997468 C47.1288439,75.6536709 43.5727257,76.9286076 39.3354262,76.9286076 C35.0994768,76.9286076 31.459308,75.9260759 28.4189705,73.9145992 C25.3776203,71.9061603 22.8793924,69.1898734 20.9246245,65.7681013 C18.9685063,62.3470042 17.5561857,58.4111392 16.6876624,53.9557806 C15.8171139,49.5027848 15.385384,44.7770464 15.385384,39.7795781 C15.385384,35.2175527 15.8988017,30.7372152 16.9320506,26.3378903 C17.9642869,21.9382278 19.4836118,17.9750211 21.4950886,14.4438819 C23.5035274,10.9147679 25.91973,8.06312236 28.745384,5.88894515 C31.5683376,3.71814346 34.7734008,2.63054852 38.358211,2.63054852 C42.8112068,2.63054852 46.5580422,3.79915612 49.6007426,6.13333333 C52.6410802,8.47122363 55.0846245,11.4298734 56.9327257,15.0133333 C58.7784641,18.5978059 60.1104473,22.508692 60.9252996,26.7446414 C61.7391392,30.9816034 62.1472405,34.9481857 62.1472405,38.6396624 C62.1472405,42.4425316 61.7391392,46.5694515 60.9252996,51.0224473 M73.7968608,21.7755274 C71.4599831,16.9431224 68.4729789,12.9232068 64.835173,9.71814346 C61.1946667,6.51510549 57.1497722,4.09654008 52.6967764,2.46818565 C48.2417553,0.83814346 43.8420928,0.0232911392 39.4991392,0.0232911392 C33.6334852,0.0232911392 28.2815865,1.11088608 23.4498565,3.28303797 C18.6150886,5.45721519 14.4885063,8.33383966 11.0674093,11.9183122 C7.64529958,15.5031224 4.98268354,19.6320675 3.08327426,24.301097 C1.18183966,28.9721519 0.231628692,33.8072574 0.231628692,38.8023629 C0.231628692,45.7545992 1.45323207,51.811308 3.89812658,56.969789 C6.34167089,62.1296203 9.49103797,66.3669198 13.3485907,69.6789873 C17.2027679,72.9930802 21.4134008,75.4092827 25.9754262,76.9286076 C30.537789,78.4516456 34.9371139,79.209789 39.1730633,79.209789 C44.2775359,79.209789 49.1369451,78.178903 53.7560169,76.1137553 C58.3717131,74.0523207 62.4166076,71.1733333 65.8944135,67.478481 C69.3701941,63.7866667 72.1398143,59.4690295 74.204962,54.5252321 C76.2663966,49.5834599 77.2996456,44.3416034 77.2996456,38.8023629 C77.2996456,32.2852321 76.1313755,26.6106329 73.7968608,21.7755274" id="Fill-12" fill="#FFFFFF" mask="url(#mask-4)"></path>
                </g>
                <path d="M60.6093502,148.79784 C59.7978734,150.164928 58.7305316,151.508388 57.4090127,152.831257 C56.0847932,154.154127 54.5492658,155.348726 52.8000675,156.41573 C51.0498565,157.483072 49.0869873,158.33573 46.9104473,158.975392 C44.7339072,159.616405 42.4074937,159.93573 39.9332321,159.93573 C36.5192236,159.93573 33.3300253,159.327797 30.3636118,158.111932 C27.3971983,156.895392 24.7956793,155.198852 22.5543291,153.023662 C20.3143291,150.846785 18.553654,148.254717 17.2739916,145.24611 C15.9943291,142.237502 15.3533165,138.963241 15.3533165,135.420624 C15.3533165,131.879021 15.9943291,128.603747 17.2739916,125.594127 C18.553654,122.585857 20.3143291,119.993114 22.5543291,117.817924 C24.7956793,115.641046 27.3971983,113.944506 30.3636118,112.728641 C33.3300253,111.512101 36.5192236,110.904169 39.9332321,110.904169 C42.4507004,110.904169 44.7875781,111.246447 46.9425148,111.927966 C49.0974515,112.611173 51.0498565,113.496574 52.8000675,114.584506 C54.5492658,115.673114 56.0847932,116.900793 57.4090127,118.265519 C58.7305316,119.631932 59.8181266,120.976068 60.6728101,122.297924 L58.4328101,122.297924 C57.9622616,121.653536 57.2371983,120.794464 56.25627,119.720371 C55.2743291,118.646278 54.0047932,117.583662 52.4476624,116.531173 C50.889519,115.478684 49.065384,114.556152 46.9742447,113.760203 C44.8831055,112.967291 42.5361013,112.567966 39.9332321,112.567966 C36.7747511,112.567966 33.820827,113.146532 31.0680844,114.3013 C28.3156793,115.458093 25.9150042,117.051679 23.8670717,119.085097 C21.8188017,121.117165 20.2073249,123.524253 19.0343291,126.30535 C17.8603207,129.086447 17.2739916,132.125772 17.2739916,135.420624 C17.2739916,138.715477 17.8603207,141.754464 19.0343291,144.535561 C20.2073249,147.316658 21.8188017,149.724084 23.8670717,151.757502 C25.9150042,153.789232 28.3156793,155.382819 31.0680844,156.538937 C33.820827,157.69438 36.7747511,158.271932 39.9332321,158.271932 C42.7065654,158.271932 45.1602363,157.863831 47.2945823,157.047629 C49.4279156,156.231764 51.2635274,155.296405 52.8000675,154.244253 C54.3355949,153.191764 55.5734008,152.138937 56.512135,151.086785 C57.4508692,150.034295 58.0908692,149.271426 58.4328101,148.79784 L60.6093502,148.79784 Z" id="Fill-15" fill="#FFFFFF"></path>
                <path d="M75.2673418,140.92503 L98.3755274,140.92503 L86.7897046,113.592034 L75.2673418,140.92503 Z M67.3308017,159.103595 L65.281519,159.103595 L85.5735021,111.736169 L88.0693671,111.736169 L108.36135,159.103595 L106.31308,159.103595 L99.2075949,142.588827 L74.4352743,142.588827 L67.3308017,159.103595 Z" id="Fill-17" fill="#FFFFFF"></path>
                <path d="M128.267747,111.73627 C130.102346,111.73627 131.680743,111.779477 133.003612,111.86454 C134.326819,111.950954 135.479224,112.066734 136.461165,112.216945 C137.442093,112.366819 138.27416,112.568 138.95703,112.825215 C139.638886,113.080405 140.279899,113.379477 140.877705,113.720743 C141.815426,114.190954 142.712304,114.851544 143.565637,115.704878 C144.419308,116.559561 145.144371,117.551966 145.742177,118.681418 C146.33897,119.812557 146.819646,121.028422 147.182177,122.330025 C147.544709,123.632304 147.72665,124.9653 147.72665,126.330363 C147.768506,127.825046 147.556186,129.425384 147.08665,131.131376 C146.616101,132.83838 145.827578,134.438717 144.718042,135.932051 C143.607831,137.426397 142.147241,138.674667 140.333232,139.676861 C138.519561,140.680405 136.332895,141.180658 133.772219,141.180658 L131.916017,141.245468 L144.654582,159.103696 L142.222177,159.103696 L128.331207,139.516861 L131.276354,139.516861 C132.385553,139.516861 133.40935,139.484793 134.348422,139.421333 C135.287156,139.356523 136.172219,139.217789 137.004287,139.004118 C137.837705,138.789435 138.646819,138.480236 139.437705,138.073148 C140.226565,137.667409 141.004962,137.143865 141.773232,136.501502 C143.266903,134.919392 144.312304,133.30454 144.91011,131.656608 C145.506903,130.0107 145.805975,128.244287 145.805975,126.36243 C145.805975,124.309772 145.326312,122.256101 144.365637,120.202093 C143.4053,118.149772 142.007494,116.524456 140.173232,115.326481 C139.446819,114.855932 138.679561,114.492388 137.869435,114.23416 C137.057958,113.978633 136.172219,113.785215 135.212219,113.657958 C134.252895,113.52935 133.206143,113.454751 132.076354,113.43281 C130.945553,113.411544 129.676017,113.401418 128.267747,113.401418 L119.369857,113.401418 L119.369857,159.103696 L117.450194,159.103696 L117.450194,111.73627 L128.267747,111.73627 Z" id="Fill-19" fill="#FFFFFF"></path>
                <path d="M159.823966,157.440068 L169.809789,157.440068 C171.046245,157.440068 172.241857,157.354667 173.394262,157.18319 C174.546667,157.012388 175.612658,156.755848 176.594937,156.412557 C178.387004,155.641924 179.869198,154.465553 181.043207,152.88243 C182.216203,151.298295 182.824135,149.180827 182.867342,146.526987 C182.867342,144.131038 182.291139,142.044624 181.139747,140.268084 C179.987342,138.491544 178.429198,137.175426 176.466329,136.31973 C175.826329,136.062852 175.228523,135.849181 174.673924,135.67838 C174.119325,135.506903 173.531646,135.388759 172.913586,135.324962 C172.29519,135.261502 171.622447,135.218295 170.897384,135.195679 C170.17097,135.175089 169.338903,135.163949 168.401519,135.163949 L159.823966,135.163949 L159.823966,157.440068 Z M159.823966,133.499814 L168.401519,133.499814 C169.809789,133.499814 171.067848,133.414414 172.178059,133.242937 C173.287595,133.070447 174.268523,132.748759 175.121857,132.275848 C177.084726,131.159899 178.375527,129.818464 178.994937,128.249857 C179.613333,126.682937 179.922532,125.060996 179.922532,123.385722 C179.922532,121.195679 179.431392,119.360068 178.450802,117.878211 C177.468861,116.396017 176.359662,115.376608 175.121857,114.817283 C174.43865,114.432135 173.586329,114.109435 172.562194,113.851207 C171.538397,113.593316 170.001519,113.443105 167.953586,113.401249 L159.823966,113.401249 L159.823966,133.499814 Z M167.953586,111.736439 C170.001519,111.736439 171.665654,111.886312 172.946329,112.185384 C174.226329,112.485131 175.335527,112.912473 176.274262,113.467072 C177.340253,114.067241 178.237131,114.761586 178.963207,115.55146 C179.688608,116.342684 180.26481,117.19838 180.690802,118.117873 C181.117131,119.036354 181.415865,119.966987 181.587679,120.907072 C181.757131,121.846819 181.843207,122.766312 181.843207,123.66319 C181.843207,124.005131 181.811477,124.593823 181.748017,125.428253 C181.683207,126.261333 181.447932,127.190954 181.043207,128.217114 C180.637468,129.243612 179.987342,130.278886 179.090802,131.326987 C178.194937,132.374751 176.935865,133.262177 175.313924,133.987241 L175.313924,134.115848 C177.490464,134.754498 179.207595,135.650025 180.467004,136.800068 C181.725063,137.950785 182.675274,139.155173 183.315274,140.411207 C183.956287,141.667916 184.360675,142.86184 184.532489,143.988928 C184.701941,145.118717 184.788354,145.959561 184.788354,146.514498 C184.745148,149.454582 184.061941,151.862008 182.740084,153.735764 C181.415865,155.610194 179.603207,157.037705 177.298397,158.017283 C175.20692,158.741333 172.689451,159.103865 169.745992,159.103865 L157.903291,159.103865 L157.903291,111.736439 L167.953586,111.736439 Z" id="Fill-21" fill="#FFFFFF"></path>
                <path d="M201.686278,140.92503 L224.794464,140.92503 L213.208641,113.592034 L201.686278,140.92503 Z M193.748726,159.103595 L191.700456,159.103595 L211.992439,111.736169 L214.488304,111.736169 L234.780287,159.103595 L232.729654,159.103595 L225.626194,142.588827 L200.854211,142.588827 L193.748726,159.103595 Z" id="Fill-23" fill="#FFFFFF"></path>
                <polygon id="Fill-25" fill="#FFFFFF" points="252.192101 140.605603 266.786194 111.736405 268.961722 111.736405 253.151426 142.780793 253.151426 159.103831 251.231426 159.103831 251.231426 142.780793 235.421131 111.736405 237.532861 111.736405"></polygon>
                <path d="M265.744675,64.2079325 C265.744675,61.3846414 266.124084,58.6150211 266.884591,55.897384 C267.643747,53.1844726 268.758684,50.7659072 270.224675,48.6474262 C271.691004,46.5289451 273.509401,44.8469198 275.683578,43.5966245 C277.85573,42.348692 280.298937,41.7225316 283.015561,41.7225316 C285.947882,41.7225316 288.527797,42.2929958 290.755308,43.4329114 C292.979781,44.5738397 294.828557,46.095865 296.294886,47.9949367 C297.761215,49.8977215 298.873789,52.0968776 299.63497,54.5947679 C300.393114,57.094346 300.774886,59.7549367 300.774886,62.5778903 C300.774886,65.6205907 300.393114,68.5255696 299.63497,71.2955274 C298.873789,74.0651477 297.732861,76.5370464 296.213198,78.7088608 C294.691173,80.883038 292.81708,82.6187342 290.591595,83.9223629 C288.364084,85.2259916 285.785181,85.8781435 282.853198,85.8781435 C278.071764,85.8781435 274.026532,83.897384 270.713789,79.9308017 C267.399359,75.9665823 265.744675,70.7247257 265.744675,64.2079325 M303.797333,106.594093 C305.82265,106.67443 310.802565,107.436962 312.89303,108.313586 C315.995814,109.617215 318.701975,111.414346 321.01016,113.705654 C323.319359,115.996962 325.146869,118.710886 326.494042,121.845401 C327.840878,124.981266 328.514633,128.406414 328.514633,132.119494 C328.514633,135.834937 327.840878,139.260759 326.494042,142.396624 C325.146869,145.531139 323.319359,148.245063 321.01016,150.536371 C318.701975,152.827679 315.995814,154.624473 312.89303,155.927089 C309.790245,157.229367 306.48189,157.880844 302.971004,157.880844 C299.411173,157.880844 296.079865,157.229367 292.977418,155.927089 C289.874295,154.624473 287.169823,152.827679 284.860287,150.536371 C282.550751,148.245063 280.73438,145.531139 279.412523,142.396624 C278.088641,139.260759 277.428051,135.834937 277.428051,132.119494 C277.428051,128.406414 278.088641,124.981266 279.412523,121.845401 C280.73438,118.710886 282.550751,115.996962 284.860287,113.705654 C285.53708,113.033924 286.25843,112.41789 287.003409,111.831224 L283.885435,111.831224 C283.720371,111.984135 283.542143,112.119494 283.380118,112.276793 C280.855224,114.730802 278.870751,117.652658 277.428051,121.044051 C275.985013,124.435781 275.262987,128.12827 275.262987,132.119494 C275.262987,136.113755 275.985013,139.805232 277.428051,143.196624 C278.870751,146.588017 280.855224,149.510211 283.380118,151.963882 C285.906025,154.41654 288.840371,156.329451 292.183831,157.700253 C295.526616,159.070717 299.122565,159.756287 302.971004,159.756287 C306.770498,159.756287 310.35497,159.070717 313.722734,157.700253 C317.08881,156.329451 320.036321,154.41654 322.561553,151.963882 C325.087122,149.510211 327.071595,146.588017 328.514633,143.196624 C329.958008,139.805232 330.679696,136.113755 330.679696,132.119494 C330.679696,128.12827 329.958008,124.435781 328.514633,121.044051 C327.071595,117.652658 325.087122,114.730802 322.561553,112.276793 C320.036321,109.824473 317.08881,107.911561 313.722734,106.540759 C312.341131,105.978397 309.198177,104.986667 305.82265,104.649114 C303.229232,104.389536 297.815899,104.12692 294.850498,104.12692 L275.194802,104.12692 C273.346025,104.12692 271.446616,104.019916 269.491848,103.800506 C267.53708,103.584473 265.744675,103.14903 264.114633,102.496878 C262.486278,101.845738 261.125603,100.949198 260.041384,99.8089451 C258.954802,98.6680169 258.412692,97.2300422 258.412692,95.491308 C258.412692,93.3191561 259.443578,91.5270886 261.507376,90.1140928 C263.570498,88.7037975 266.340118,87.8889451 269.817924,87.6708861 C271.989738,87.6708861 273.862819,87.7799156 275.439527,87.9959494 C277.012186,88.2150211 278.560203,88.3220253 280.083241,88.3220253 C290.617924,88.3220253 298.873789,86.1785654 304.848473,81.8855696 C310.821131,77.5962869 313.81016,71.1601688 313.81016,62.5778903 C313.81016,59.1034599 313.239696,56.2794937 312.099781,54.1049789 C310.958515,51.9345148 309.574211,49.6 307.944506,47.0994093 L308.596658,46.44827 C309.899274,47.2087764 311.366616,48.0519831 312.99497,48.9735021 C314.625013,49.8977215 316.226363,50.7399156 317.801722,51.4990717 C319.37573,52.2595781 320.816743,52.91173 322.119696,53.4538397 C323.422987,53.9983122 324.40054,54.268692 325.052692,54.268692 C326.681384,54.268692 328.067038,53.6448945 329.208304,52.3945992 C330.348219,51.1480169 330.918346,49.7066667 330.918346,48.076962 C330.918346,46.2312236 330.319865,44.655865 329.126278,43.3522363 C327.929654,42.0486076 326.409992,41.3961181 324.564253,41.3961181 C323.260624,41.3961181 322.119696,41.587173 321.141806,41.9669198 C320.164591,42.348692 319.240371,42.7817722 318.372186,43.2705485 C317.501637,43.7589873 316.552776,44.1944304 315.52054,44.5738397 C314.487291,44.9559494 313.321384,45.1446414 312.017755,45.1446414 C310.714464,45.1446414 309.59919,45.091308 308.677333,44.9809283 C307.753451,44.8742616 306.640878,44.6025316 305.337249,44.1670886 C301.859443,42.3213502 298.520371,41.0177215 295.317333,40.2562025 C292.11227,39.4970464 288.44611,39.1152743 284.318852,39.1152743 C279.757165,39.1152743 275.546194,39.7677637 271.691004,41.0713924 C267.834464,42.3746835 264.49438,44.141097 261.671426,46.3665823 C258.844759,48.5940928 256.645266,51.2283544 255.072608,54.268692 C253.496236,57.3113924 252.709738,60.569789 252.709738,64.0442194 C252.709738,69.5848101 254.038008,74.1468354 256.700962,77.7316456 C259.36189,81.3164557 263.081384,84.0324051 267.862819,85.8781435 L267.862819,86.3669198 C265.145857,86.6919831 262.620287,87.372827 260.285772,88.4037131 C257.948895,89.4366245 255.912439,90.7122363 254.17573,92.2325738 C252.436658,93.7545992 251.079696,95.4379747 250.102143,97.2833755 C249.124928,99.1314768 248.636152,101.086582 248.636152,103.14903 C248.636152,104.371983 248.783325,105.514262 249.045266,106.594093 C249.045266,106.594093 301.609654,106.507679 303.797333,106.594093" id="Fill-27" fill="#FFFFFF"></path>
            </g>
        </g>
    </g>
</svg>