<?xml version="1.0" encoding="UTF-8"?>
<svg width="42px" height="42px" viewBox="0 0 42 42" version="1.1" xmlns="http://www.w3.org/2000/svg" xmlns:xlink="http://www.w3.org/1999/xlink">
    <!-- Generator: Sketch 63.1 (92452) - https://sketch.com -->
    <title>Monogram</title>
    <desc>Created with Sketch.</desc>
    <g id="Page-1" stroke="none" stroke-width="1" fill="none" fill-rule="evenodd">
        <g id="iPhone-11-Pro" transform="translate(-24.000000, -378.000000)" fill-rule="nonzero">
            <g id="Monogram" transform="translate(24.000000, 378.000000)">
                <rect id="Rectangle-path" fill="#FFFFFF" x="0" y="0.323076923" width="42" height="41.3538462"></rect>
                <path d="M9.83288084,14.497056 C9.86820391,14.1573572 9.73511366,13.8216026 9.47450981,13.5929724 L6.8199095,10.4803419 L6.8199095,10.0153846 L15.0624434,10.0153846 L21.4334842,23.6153845 L27.0346909,10.0153846 L34.8923077,10.0153846 L34.8923077,10.4803419 L32.6226245,12.5984805 C32.4269529,12.7436563 32.3298898,12.9822629 32.3704375,13.2184236 L32.3704375,28.7815765 C32.3298898,29.0177371 32.4269529,29.2563436 32.6226245,29.4015195 L34.8392157,31.5196582 L34.8392157,31.9846154 L23.6898945,31.9846154 L23.6898945,31.5196582 L25.9861238,29.3498576 C26.2117647,29.1302943 26.2117647,29.0657171 26.2117647,28.7299146 L26.2117647,16.1502374 L19.827451,31.9329535 L18.9647059,31.9329535 L11.531825,16.1502374 L11.531825,26.7280151 C11.4698524,27.1727347 11.6215972,27.6204699 11.9432881,27.9420703 L14.9297134,31.4679962 L14.9297134,31.9329535 L6.46153846,31.9329535 L6.46153846,31.4679962 L9.4479638,27.9420703 C9.7673125,27.6199368 9.91020896,27.1692314 9.83288084,26.7280151 L9.83288084,14.497056 Z" id="Shape" fill="#2B2B2B"></path>
            </g>
        </g>
    </g>
</svg>